<?xml version="1.0" standalone="no"?>
<!DOCTYPE svg PUBLIC "-//W3C//DTD SVG 20010904//EN"
 "http://www.w3.org/TR/2001/REC-SVG-20010904/DTD/svg10.dtd">
<svg version="1.0" xmlns="http://www.w3.org/2000/svg"
 width="760.000000pt" height="760.000000pt" viewBox="0 0 760.000000 760.000000"
 preserveAspectRatio="xMidYMid meet">
<metadata>
Created by potrace 1.14, written by Peter Selinger 2001-2017
</metadata>
<g transform="translate(0.000000,760.000000) scale(0.100000,-0.100000)"
fill="#000000" stroke="none">
<path d="M3790 7565 c0 -20 -48 -223 -61 -255 -5 -14 -11 -36 -14 -49 -9 -46
-104 -324 -135 -396 -5 -11 -15 -36 -24 -55 -69 -163 -176 -383 -190 -392 -6
-4 -8 -8 -3 -8 4 0 0 -12 -9 -26 -18 -27 -45 -74 -65 -114 -11 -21 -178 -284
-201 -315 -87 -120 -220 -292 -286 -370 -78 -92 -404 -423 -462 -470 -90 -72
-198 -161 -211 -174 -9 -9 -34 -29 -55 -46 -82 -64 -376 -366 -463 -475 -50
-63 -95 -120 -99 -125 -5 -6 -17 -24 -28 -40 -10 -17 -23 -34 -27 -40 -13 -16
-105 -161 -128 -202 -32 -57 -129 -251 -129 -258 0 -3 -8 -25 -19 -48 -33 -73
-70 -185 -101 -300 -25 -97 -34 -141 -55 -265 -14 -83 -20 -180 -20 -337 0
-159 10 -359 19 -374 2 -3 6 -28 10 -56 8 -66 12 -87 61 -303 7 -31 73 -232
84 -257 5 -11 19 -47 32 -80 29 -77 146 -312 159 -320 6 -4 8 -11 5 -16 -4 -5
-1 -9 4 -9 6 0 11 -7 11 -15 0 -8 5 -15 10 -15 6 0 10 -5 10 -11 0 -21 178
-274 243 -346 17 -19 38 -43 47 -54 8 -11 56 -62 106 -112 80 -81 114 -113
222 -205 15 -12 34 -29 43 -37 9 -8 19 -15 23 -15 4 0 15 -8 24 -17 42 -42
301 -201 437 -268 198 -97 353 -156 545 -206 50 -13 229 -50 265 -55 17 -2 46
-6 65 -9 120 -20 512 -27 643 -12 93 11 150 18 177 23 14 3 36 7 50 9 14 2 36
6 50 9 14 4 36 8 50 11 118 22 372 104 513 166 94 42 268 129 277 140 3 3 20
12 38 20 17 8 32 17 32 21 0 5 4 8 10 8 11 0 155 96 190 128 14 12 28 22 32
22 3 0 13 6 20 13 7 7 27 23 43 36 51 39 156 133 219 197 54 53 89 92 214 234
17 21 32 42 32 48 0 6 4 12 8 14 10 3 112 145 112 154 0 3 11 20 24 37 47 63
187 323 193 361 2 11 11 28 20 38 9 10 14 18 11 18 -3 0 7 33 24 73 39 96 102
302 122 402 49 238 61 357 61 595 0 176 -4 233 -21 365 -10 80 -50 247 -81
345 -8 25 -16 50 -17 55 -1 9 -8 27 -36 100 -24 65 -120 270 -154 330 -39 71
-155 256 -166 265 -3 3 -17 21 -30 40 -13 19 -27 37 -30 40 -4 3 -11 12 -16
21 -13 23 -76 100 -96 118 -10 9 -18 18 -18 22 0 3 -25 32 -55 65 -199 212
-298 302 -582 532 -159 128 -471 456 -617 647 -9 11 -29 38 -46 60 -17 22 -36
47 -43 55 -7 8 -41 58 -76 110 -36 52 -68 97 -73 98 -4 2 -8 7 -8 12 0 5 -23
46 -52 92 -177 285 -338 622 -425 888 -13 41 -28 84 -33 95 -13 30 -58 185
-65 224 -3 19 -9 39 -13 45 -3 6 -7 16 -8 21 -16 94 -26 135 -35 141 -5 3 -9
-2 -9 -11z"/>
</g>
</svg>
